<svg width="64" height="64" viewBox="0 0 64 64" fill="none" xmlns="http://www.w3.org/2000/svg">
<path d="M32.0004 37.6621C35.1567 37.6621 37.7155 35.1034 37.7155 31.9471C37.7155 28.7908 35.1567 26.2321 32.0004 26.2321C28.8441 26.2321 26.2854 28.7908 26.2854 31.9471C26.2854 35.1034 28.8441 37.6621 32.0004 37.6621Z" fill="#00B37E"/>
<path fill-rule="evenodd" clip-rule="evenodd" d="M32.0004 20.3273C39.6736 20.3273 46.8018 21.4283 52.1765 23.2786C58.6521 25.508 62.6336 28.8872 62.6336 31.9471C62.6336 35.1357 58.414 38.7257 51.46 41.0297C46.2026 42.7716 39.2843 43.6809 32.0004 43.6809C24.5325 43.6809 17.4608 42.8274 12.1442 41.0106C5.41766 38.7114 1.36621 35.075 1.36621 31.9471C1.36621 28.9121 5.16772 25.5589 11.5524 23.3329C16.947 21.4521 24.2513 20.3273 31.9994 20.3273H32.0004Z" stroke="#00B37E" stroke-width="2.73408"/>
<path fill-rule="evenodd" clip-rule="evenodd" d="M21.8851 26.1706C25.7185 19.5236 30.2332 13.8987 34.5211 10.1672C39.6874 5.67119 44.6039 3.91044 47.2544 5.43891C50.0168 7.03185 51.0186 12.4808 49.5405 19.6557C48.4241 25.0803 45.7545 31.5275 42.1156 37.8373C38.3847 44.3066 34.1127 50.0062 29.8832 53.7032C24.5313 58.3816 19.357 60.0747 16.6474 58.5121C14.0182 56.9969 13.0127 52.0277 14.274 45.3847C15.3398 39.7719 18.0143 32.8826 21.8839 26.1705L21.8851 26.1706Z" stroke="#00B37E" stroke-width="2.73408"/>
<path fill-rule="evenodd" clip-rule="evenodd" d="M21.8946 37.8543C18.0503 31.2148 15.433 24.4929 14.3405 18.9145C13.0254 12.1932 13.9553 7.05428 16.6034 5.52137C19.363 3.92375 24.5841 5.777 30.062 10.6409C34.2036 14.3183 38.4565 19.8499 42.1059 26.1538C45.8475 32.6168 48.6518 39.1646 49.7427 44.6751C51.123 51.6485 50.0058 56.9766 47.2987 58.5437C44.6721 60.0643 39.8655 58.4544 34.7402 54.0439C30.4098 50.3176 25.7767 44.5597 21.8946 37.8541V37.8543Z" stroke="#00B37E" stroke-width="2.73408"/>
</svg>
